<mxfile host="app.diagrams.net" modified="2022-07-21T13:44:47.293Z" agent="5.0 (Windows NT 10.0; Win64; x64) AppleWebKit/537.36 (KHTML, like Gecko) Chrome/103.0.0.0 Safari/537.36" etag="44J7tJuv7LOaTxZKgZJw" version="20.1.4" type="github">
  <diagram id="2Au6WcYREIJmuJU7MSFc" name="Page-1">
    <mxGraphModel dx="1093" dy="576" grid="1" gridSize="10" guides="1" tooltips="1" connect="1" arrows="1" fold="1" page="1" pageScale="1" pageWidth="1600" pageHeight="900" math="0" shadow="0">
      <root>
        <mxCell id="0" />
        <mxCell id="1" parent="0" />
        <mxCell id="bzang_ROvlkpIq6nXfPh-2" value="AWS Cloud" style="points=[[0,0],[0.25,0],[0.5,0],[0.75,0],[1,0],[1,0.25],[1,0.5],[1,0.75],[1,1],[0.75,1],[0.5,1],[0.25,1],[0,1],[0,0.75],[0,0.5],[0,0.25]];outlineConnect=0;gradientColor=none;html=1;whiteSpace=wrap;fontSize=12;fontStyle=0;container=1;pointerEvents=0;collapsible=0;recursiveResize=0;shape=mxgraph.aws4.group;grIcon=mxgraph.aws4.group_aws_cloud_alt;strokeColor=#232F3E;fillColor=none;verticalAlign=top;align=left;spacingLeft=30;fontColor=#232F3E;dashed=0;" vertex="1" parent="1">
          <mxGeometry x="40" y="40" width="880" height="480" as="geometry" />
        </mxCell>
        <mxCell id="bzang_ROvlkpIq6nXfPh-3" value="Region" style="points=[[0,0],[0.25,0],[0.5,0],[0.75,0],[1,0],[1,0.25],[1,0.5],[1,0.75],[1,1],[0.75,1],[0.5,1],[0.25,1],[0,1],[0,0.75],[0,0.5],[0,0.25]];outlineConnect=0;gradientColor=none;html=1;whiteSpace=wrap;fontSize=12;fontStyle=0;container=1;pointerEvents=0;collapsible=0;recursiveResize=0;shape=mxgraph.aws4.group;grIcon=mxgraph.aws4.group_region;strokeColor=#147EBA;fillColor=none;verticalAlign=top;align=left;spacingLeft=30;fontColor=#147EBA;dashed=1;" vertex="1" parent="bzang_ROvlkpIq6nXfPh-2">
          <mxGeometry x="40" y="40" width="840" height="440" as="geometry" />
        </mxCell>
        <mxCell id="bzang_ROvlkpIq6nXfPh-4" value="eu-west-2" style="fillColor=none;strokeColor=#147EBA;dashed=1;verticalAlign=top;fontStyle=0;fontColor=#147EBA;" vertex="1" parent="bzang_ROvlkpIq6nXfPh-3">
          <mxGeometry x="80" y="80" width="320" height="330" as="geometry" />
        </mxCell>
        <mxCell id="bzang_ROvlkpIq6nXfPh-5" value="eu-west-2" style="fillColor=none;strokeColor=#147EBA;dashed=1;verticalAlign=top;fontStyle=0;fontColor=#147EBA;" vertex="1" parent="bzang_ROvlkpIq6nXfPh-3">
          <mxGeometry x="440" y="80" width="320" height="330" as="geometry" />
        </mxCell>
        <mxCell id="bzang_ROvlkpIq6nXfPh-11" value="VPC" style="points=[[0,0],[0.25,0],[0.5,0],[0.75,0],[1,0],[1,0.25],[1,0.5],[1,0.75],[1,1],[0.75,1],[0.5,1],[0.25,1],[0,1],[0,0.75],[0,0.5],[0,0.25]];outlineConnect=0;gradientColor=none;html=1;whiteSpace=wrap;fontSize=12;fontStyle=0;container=1;pointerEvents=0;collapsible=0;recursiveResize=0;shape=mxgraph.aws4.group;grIcon=mxgraph.aws4.group_vpc;strokeColor=#248814;fillColor=none;verticalAlign=top;align=left;spacingLeft=30;fontColor=#AAB7B8;dashed=0;" vertex="1" parent="bzang_ROvlkpIq6nXfPh-3">
          <mxGeometry x="40" y="40" width="800" height="400" as="geometry" />
        </mxCell>
        <mxCell id="bzang_ROvlkpIq6nXfPh-13" value="Public subnet" style="points=[[0,0],[0.25,0],[0.5,0],[0.75,0],[1,0],[1,0.25],[1,0.5],[1,0.75],[1,1],[0.75,1],[0.5,1],[0.25,1],[0,1],[0,0.75],[0,0.5],[0,0.25]];outlineConnect=0;gradientColor=none;html=1;whiteSpace=wrap;fontSize=12;fontStyle=0;container=1;pointerEvents=0;collapsible=0;recursiveResize=0;shape=mxgraph.aws4.group;grIcon=mxgraph.aws4.group_security_group;grStroke=0;strokeColor=#248814;fillColor=#E9F3E6;verticalAlign=top;align=left;spacingLeft=30;fontColor=#248814;dashed=0;" vertex="1" parent="bzang_ROvlkpIq6nXfPh-11">
          <mxGeometry x="80" y="80" width="240" height="240" as="geometry" />
        </mxCell>
        <mxCell id="bzang_ROvlkpIq6nXfPh-16" value="" style="outlineConnect=0;dashed=0;verticalLabelPosition=bottom;verticalAlign=top;align=center;html=1;shape=mxgraph.aws3.internet_gateway;fillColor=#F58536;gradientColor=none;" vertex="1" parent="bzang_ROvlkpIq6nXfPh-11">
          <mxGeometry x="345.5" y="-32" width="64.5" height="72" as="geometry" />
        </mxCell>
        <mxCell id="bzang_ROvlkpIq6nXfPh-18" value="Public subnet" style="points=[[0,0],[0.25,0],[0.5,0],[0.75,0],[1,0],[1,0.25],[1,0.5],[1,0.75],[1,1],[0.75,1],[0.5,1],[0.25,1],[0,1],[0,0.75],[0,0.5],[0,0.25]];outlineConnect=0;gradientColor=none;html=1;whiteSpace=wrap;fontSize=12;fontStyle=0;container=1;pointerEvents=0;collapsible=0;recursiveResize=0;shape=mxgraph.aws4.group;grIcon=mxgraph.aws4.group_security_group;grStroke=0;strokeColor=#248814;fillColor=#E9F3E6;verticalAlign=top;align=left;spacingLeft=30;fontColor=#248814;dashed=0;" vertex="1" parent="bzang_ROvlkpIq6nXfPh-11">
          <mxGeometry x="440" y="80" width="240" height="240" as="geometry" />
        </mxCell>
        <mxCell id="bzang_ROvlkpIq6nXfPh-20" value="" style="outlineConnect=0;dashed=0;verticalLabelPosition=bottom;verticalAlign=top;align=center;html=1;shape=mxgraph.aws3.ec2;fillColor=#F58534;gradientColor=none;" vertex="1" parent="bzang_ROvlkpIq6nXfPh-18">
          <mxGeometry x="150" y="40" width="66.5" height="63" as="geometry" />
        </mxCell>
        <mxCell id="bzang_ROvlkpIq6nXfPh-23" style="edgeStyle=orthogonalEdgeStyle;rounded=0;orthogonalLoop=1;jettySize=auto;html=1;exitX=0.5;exitY=0;exitDx=0;exitDy=0;exitPerimeter=0;entryX=0.5;entryY=1;entryDx=0;entryDy=0;entryPerimeter=0;" edge="1" parent="bzang_ROvlkpIq6nXfPh-11" source="bzang_ROvlkpIq6nXfPh-19" target="bzang_ROvlkpIq6nXfPh-16">
          <mxGeometry relative="1" as="geometry" />
        </mxCell>
        <mxCell id="bzang_ROvlkpIq6nXfPh-19" value="" style="outlineConnect=0;dashed=0;verticalLabelPosition=bottom;verticalAlign=top;align=center;html=1;shape=mxgraph.aws3.application_load_balancer;fillColor=#F58536;gradientColor=none;" vertex="1" parent="bzang_ROvlkpIq6nXfPh-11">
          <mxGeometry x="352.75" y="60" width="50" height="50" as="geometry" />
        </mxCell>
        <mxCell id="bzang_ROvlkpIq6nXfPh-21" style="edgeStyle=orthogonalEdgeStyle;rounded=0;orthogonalLoop=1;jettySize=auto;html=1;exitX=0.5;exitY=1;exitDx=0;exitDy=0;exitPerimeter=0;entryX=0;entryY=0.79;entryDx=0;entryDy=0;entryPerimeter=0;" edge="1" parent="bzang_ROvlkpIq6nXfPh-11" source="bzang_ROvlkpIq6nXfPh-19" target="bzang_ROvlkpIq6nXfPh-20">
          <mxGeometry relative="1" as="geometry">
            <mxPoint x="550" y="170" as="targetPoint" />
          </mxGeometry>
        </mxCell>
        <mxCell id="bzang_ROvlkpIq6nXfPh-14" value="" style="outlineConnect=0;dashed=0;verticalLabelPosition=bottom;verticalAlign=top;align=center;html=1;shape=mxgraph.aws3.ec2;fillColor=#F58534;gradientColor=none;" vertex="1" parent="bzang_ROvlkpIq6nXfPh-3">
          <mxGeometry x="140" y="160" width="66.5" height="63" as="geometry" />
        </mxCell>
        <mxCell id="bzang_ROvlkpIq6nXfPh-17" value="" style="sketch=0;points=[[0,0,0],[0.25,0,0],[0.5,0,0],[0.75,0,0],[1,0,0],[0,1,0],[0.25,1,0],[0.5,1,0],[0.75,1,0],[1,1,0],[0,0.25,0],[0,0.5,0],[0,0.75,0],[1,0.25,0],[1,0.5,0],[1,0.75,0]];outlineConnect=0;fontColor=#232F3E;gradientColor=#945DF2;gradientDirection=north;fillColor=#5A30B5;strokeColor=#ffffff;dashed=0;verticalLabelPosition=bottom;verticalAlign=top;align=center;html=1;fontSize=12;fontStyle=0;aspect=fixed;shape=mxgraph.aws4.resourceIcon;resIcon=mxgraph.aws4.route_53;" vertex="1" parent="bzang_ROvlkpIq6nXfPh-3">
          <mxGeometry x="510" y="-38" width="40" height="40" as="geometry" />
        </mxCell>
        <mxCell id="bzang_ROvlkpIq6nXfPh-22" style="edgeStyle=orthogonalEdgeStyle;rounded=0;orthogonalLoop=1;jettySize=auto;html=1;exitX=0.5;exitY=1;exitDx=0;exitDy=0;exitPerimeter=0;entryX=1;entryY=0.79;entryDx=0;entryDy=0;entryPerimeter=0;" edge="1" parent="bzang_ROvlkpIq6nXfPh-3" source="bzang_ROvlkpIq6nXfPh-19" target="bzang_ROvlkpIq6nXfPh-14">
          <mxGeometry relative="1" as="geometry" />
        </mxCell>
        <mxCell id="bzang_ROvlkpIq6nXfPh-12" value="Single Tier" style="text;html=1;align=center;verticalAlign=middle;resizable=0;points=[];autosize=1;strokeColor=none;fillColor=none;" vertex="1" parent="1">
          <mxGeometry x="440" width="80" height="30" as="geometry" />
        </mxCell>
      </root>
    </mxGraphModel>
  </diagram>
</mxfile>
